<svg xmlns="http://www.w3.org/2000/svg" width="500" height="500" baseProfile="tiny-ps" version="1.2" viewBox="0 0 250 250"><title>jotone.eu</title><circle cx="125" cy="125" r="125" fill="#fff"/><g stroke-width="1.5" font-size="288" font-weight="bold"><path d="M152.20476593 30.51945879v129.17461108q0 6.52914766-2.04835862 12.29015173-1.92033166 5.63298621-5.50495925 9.72970346-3.58462759 4.09671724-8.70552415 6.52914766-5.12089655 2.30440345-11.26597242 2.30440345-7.68134483 0-13.05828622-2.04835862-5.37694138-2.04835863-8.70552414-6.27310284-2.56045101-3.45660062-3.84067515-8.44947931-1.28022414-4.9928696-1.28022414-11.65003512H61.69292112q.12802241 14.46652822 4.73682931 25.22041099t12.9302638 17.79512009q8.1934345 7.16925517 19.71545175 10.75388276 11.52201998 3.5846276 25.60448551 3.5846276 13.31433105 0 24.8363483-4.35276208 11.65003511-4.35276207 20.2275414-12.29015174 8.57749718-7.93738966 13.4423489-18.8192994 4.9928787-11.00992759 5.12089656-24.32425863l-.12801786-129.17461108Z"/><path d="M97.79391723 127.48293864a18.05050215 18.05050215 0 0 1-18.05050215 18.05050944 18.05050215 18.05050215 0 0 1-18.05050216-18.05050944 18.05050215 18.05050215 0 0 1 18.05050216-18.05050034 18.05050215 18.05050215 0 0 1 18.05050215 18.05050034Z"/></g></svg>